# xmcd
#
# Track frame offsets:
#	150
#	6775
#	11285
#	14922
#	18662
#	23435
#	28067
#	32105
#	34307
#	36957
#	39195
#	42987
#	47475
#	58540
#	61810
#	72757
#	78447
#	112035
#	116300
#	119445
#	124010
#	142670
#	148915
#	170185
#	189890
#
# Disc length: 2943 seconds
#
# Revision: 1
# Processed by: cddbd v1.5.1PL0 Copyright (c) Steve Scherf et al.
# Submitted via: audiograbber 1.83.01
#
DISCID=4b0b7d19
DTITLE=Blues Harp Effects - in 60 minutes
DYEAR=1998
DGENRE=Workshop
TTITLE0=Wet Warbles and Dry Shakes
TTITLE1=Solo-Bending the Warble
TTITLE2=Growling Bends
TTITLE3=Solo
TTITLE4=Whips and Rips
TTITLE5=Solo
TTITLE6=Zero-In
TTITLE7=Solo
TTITLE8=Tongue Slap
TTITLE9=Solo
TTITLE10=Slap Block
TTITLE11=Solo
TTITLE12=Trumpet Burst-Tongue Tickle-Bongo Hammer
TTITLE13=Solo
TTITLE14=Wah Cry5
TTITLE15=Solo
TTITLE16=Throbbin' in Rhythm
TTITLE17=Solo
TTITLE18=Chasin' the Beat
TTITLE19=Solo
TTITLE20=All Forked Up-Tongue Lift-Rakes and Ripples
TTITLE21=Solo
TTITLE22=Inch Worm
TTITLE23=Lick: More! More! Faster - Yeah
TTITLE24=Do the Float
EXTD=
EXTT0=
EXTT1=
EXTT2=
EXTT3=
EXTT4=
EXTT5=
EXTT6=
EXTT7=
EXTT8=
EXTT9=
EXTT10=
EXTT11=
EXTT12=
EXTT13=
EXTT14=
EXTT15=
EXTT16=
EXTT17=
EXTT18=
EXTT19=
EXTT20=
EXTT21=
EXTT22=
EXTT23=
EXTT24=
PLAYORDER=
